<svg width="15" height="17" viewBox="0 0 15 17" fill="none" xmlns="http://www.w3.org/2000/svg">
<g clip-path="url(#clip0_2119_1195)">
<path d="M13.4501 4.93065L13.8023 4.59245L13.8022 4.59257C13.8547 4.54252 13.8843 4.47441 13.8843 4.40344C13.8843 4.33247 13.8547 4.26435 13.8022 4.21442L12.7955 3.24782C12.7435 3.19742 12.6725 3.169 12.5986 3.169C12.5247 3.169 12.4537 3.19742 12.4016 3.24782L12.0494 3.58602L12.0495 3.5859C10.8957 2.73652 9.50853 2.22939 8.05871 2.12668V1.57284H8.66054C8.79983 1.55881 8.90198 1.44064 8.89071 1.30655V0.773977C8.90198 0.639884 8.79983 0.521717 8.66054 0.50769H6.34749C6.2082 0.521718 6.10605 0.639884 6.11732 0.773977V1.30655C6.10605 1.44064 6.2082 1.55881 6.34749 1.57284H6.94932V2.12668C5.28777 2.24449 3.71446 2.89106 2.47864 3.96406C1.24276 5.03693 0.414967 6.475 0.126092 8.05056C-0.162761 9.62606 0.103929 11.249 0.883809 12.6626C1.66381 14.0763 2.91246 15.1997 4.43246 15.8553C5.95224 16.5108 7.65623 16.661 9.27493 16.282C10.8936 15.903 12.3344 15.0164 13.3694 13.7628C14.4042 12.5091 14.9741 10.9597 14.9887 9.36005C15.0033 7.76032 14.4619 6.20174 13.4501 4.93057L13.4501 4.93065ZM7.50396 15.4196C5.8122 15.4196 4.18985 14.7743 2.99366 13.6257C1.7974 12.4771 1.12535 10.9194 1.12535 9.29516C1.12535 7.67097 1.7974 6.11311 2.99366 4.96458C4.18992 3.81599 5.81236 3.17073 7.50396 3.17073C9.19556 3.17073 10.8181 3.81599 12.0143 4.96458C13.2105 6.11317 13.8826 7.67097 13.8826 9.29516C13.8826 10.9194 13.2105 12.4772 12.0143 13.6257C10.818 14.7743 9.19556 15.4196 7.50396 15.4196Z" fill="#FF6700"/>
<path d="M7.50408 4.76819V9.29506L4.17603 12.4905C5.2887 13.5625 6.88588 14.0298 8.43244 13.7355C9.97872 13.4413 11.2695 12.4245 11.8724 11.0259C12.4751 9.62732 12.3099 8.0321 11.4323 6.77477C10.5547 5.51753 9.08068 4.76454 7.5043 4.76822L7.50408 4.76819Z" fill="#FF6700"/>
</g>
<defs>
<clipPath id="clip0_2119_1195">
<rect width="15" height="16" fill="white" transform="translate(0 0.5)"/>
</clipPath>
</defs>
</svg>
