<svg width="18" height="18" viewBox="0 0 18 18" fill="none" xmlns="http://www.w3.org/2000/svg">
<path d="M15.4246 0.503926V0.502066C15.0584 0.180883 14.5607 0.00018595 14.0415 0H4.95639C3.87734 0.00306818 3.00352 0.765511 3 1.70702V16.2911C3.00021 16.7441 3.20731 17.1784 3.57541 17.4979C3.94106 17.8187 4.43794 17.9993 4.95639 18H14.0436C14.5621 17.9993 15.0589 17.8187 15.4246 17.4979C15.7922 17.1789 15.9992 16.7453 16 16.293V1.70888C15.9992 1.25651 15.7922 0.82297 15.4246 0.503926ZM9.5 16.8415C9.20809 16.8415 8.97148 16.6351 8.97148 16.3804C8.97148 16.1257 9.20809 15.9192 9.5 15.9192C9.79191 15.9192 10.0285 16.1257 10.0285 16.3804C10.0285 16.6351 9.79191 16.8415 9.5 16.8415ZM14.4464 13.9463C14.4464 14.5625 13.8739 15.062 13.1677 15.062H5.83016C5.12396 15.062 4.55148 14.5625 4.55148 13.9463V3.07748C4.55148 2.46129 5.12396 1.96178 5.83016 1.96178H13.1698C13.876 1.96178 14.4485 2.46129 14.4485 3.07748L14.4464 13.9463Z" fill="#FF6700"/>
</svg>
