<svg width="42" height="36" viewBox="0 0 42 36" fill="none" xmlns="http://www.w3.org/2000/svg">
<path fill-rule="evenodd" clip-rule="evenodd" d="M10.5283 0H21H31.4717L36.7359 9L42 18L36.7359 27L31.4717 36H21H10.5283L5.26415 27L0 18L5.26415 9L10.5283 0ZM21 5.08696C28.1887 5.08696 34.0189 10.8447 34.0189 17.9441C34.0189 25.0435 28.1887 30.8012 21 30.8012C13.8113 30.8012 7.98113 25.0435 7.98113 17.9441C7.98113 10.8447 13.8113 5.08696 21 5.08696Z" fill="#FF6700"/>
<path d="M25.856 23.712C25.732 23.82 25.724 24.012 25.832 24.136C25.888 24.2 25.972 24.236 26.056 24.236C26.128 24.236 26.2 24.208 26.256 24.156C26.38 24.048 26.388 23.856 26.28 23.736C26.172 23.616 25.972 23.604 25.856 23.712Z" fill="#FF6700"/>
<path d="M28.5641 11.556L21.1641 8.472C21.0921 8.44 21.0081 8.44 20.9361 8.472L13.5361 11.556C13.4241 11.6 13.3521 11.708 13.3521 11.832V19.752C13.3561 20.764 13.7681 21.796 14.5681 22.816C15.1961 23.62 16.0481 24.408 17.1721 25.228C18.9721 26.524 20.7321 27.336 20.9281 27.424C20.9681 27.44 21.0081 27.448 21.0521 27.448C21.0921 27.448 21.1321 27.44 21.1761 27.424C21.1761 27.42 21.1801 27.42 21.1921 27.416C21.6 27.224 23.7401 26.204 25.6321 24.688C25.7601 24.584 25.7801 24.392 25.6801 24.264C25.5801 24.14 25.3801 24.12 25.2561 24.22C24.2161 25.056 23.0921 25.732 22.3321 26.156C21.7361 26.488 21.2761 26.712 21.0481 26.82C20.6041 26.608 19.0721 25.86 17.5241 24.74C16.1801 23.776 13.9321 21.844 13.9481 19.752V12.032L15.6961 11.304C15.7041 11.3 15.7121 11.3 15.7161 11.296L21.0481 9.076L28.1481 12.032V19.752C28.1521 20.84 27.5681 21.992 26.4201 23.172C26.3041 23.288 26.3081 23.48 26.4241 23.596C26.5401 23.708 26.736 23.704 26.8481 23.588C28.1081 22.296 28.748 21.004 28.748 19.752V11.832C28.748 11.708 28.6761 11.6 28.5641 11.556Z" fill="#FF6700"/>
<path d="M24.0241 11.592L21.1641 10.4C21.0921 10.372 21.0081 10.372 20.9361 10.4L15.3161 12.74C15.2041 12.788 15.1321 12.896 15.1321 13.02V19.752C15.1521 20.944 16.1881 22.3 18.2161 23.784C19.2281 24.512 20.2441 25.084 20.9201 25.436C20.9641 25.46 21.0121 25.468 21.0601 25.468C21.1081 25.468 21.1561 25.46 21.1961 25.436C22.5881 24.724 23.9761 23.796 24.9961 22.888C26.3121 21.712 26.9561 20.684 26.9681 19.752V13.02C26.9681 12.896 26.8961 12.788 26.7841 12.74L25.5001 12.208C25.3521 12.144 25.1721 12.22 25.1121 12.368C25.0801 12.444 25.0801 12.524 25.1081 12.6C25.1401 12.672 25.1961 12.728 25.2681 12.76C25.2681 12.76 25.2681 12.76 25.2721 12.764L26.3681 13.22V19.752C26.3801 20.448 25.7201 21.456 24.5961 22.44C23.6521 23.28 22.3601 24.152 21.0601 24.832C20.4321 24.5 19.4921 23.964 18.5681 23.296C16.8201 22.048 15.7081 20.656 15.7321 19.752V13.22L21.0521 11.004L23.7961 12.148C23.9441 12.208 24.1241 12.132 24.1881 11.984C24.2481 11.832 24.1761 11.656 24.0241 11.592Z" fill="#FF6700"/>
<path d="M24.5321 12.452C24.5681 12.468 24.6081 12.476 24.6481 12.476C24.7721 12.476 24.8801 12.404 24.9241 12.292C24.9561 12.22 24.9561 12.136 24.9241 12.064C24.8961 11.988 24.8361 11.932 24.7641 11.9C24.6161 11.836 24.4321 11.912 24.3721 12.06C24.3401 12.136 24.3401 12.216 24.3721 12.292C24.4001 12.364 24.4601 12.424 24.5321 12.452Z" fill="#FF6700"/>
</svg>
