<svg width="18" height="18" viewBox="0 0 18 18" fill="none" xmlns="http://www.w3.org/2000/svg">
<path d="M4.99087 4.49799C4.83973 4.49799 4.69469 4.55722 4.58782 4.66264C4.48095 4.76806 4.4209 4.91114 4.4209 5.06023V12.9317C4.4209 13.0808 4.48095 13.2239 4.58782 13.3293C4.69469 13.4347 4.83973 13.494 4.99087 13.494H12.9705C13.1217 13.494 13.2667 13.4347 13.3736 13.3293C13.4804 13.2239 13.5405 13.0808 13.5405 12.9317V5.06023C13.5405 4.91114 13.4804 4.76806 13.3736 4.66264C13.2667 4.55722 13.1217 4.49799 12.9705 4.49799H4.99087ZM12.4005 12.3695H5.56085V5.62248H7.27077V7.87148C7.27077 8.02058 7.33082 8.16365 7.43769 8.26907C7.54456 8.37449 7.6896 8.43373 7.84075 8.43373H10.1206C10.2718 8.43373 10.4168 8.37449 10.5237 8.26907C10.6306 8.16365 10.6906 8.02058 10.6906 7.87148V5.62248H12.4005V12.3695Z" fill="#FF6700"/>
<path d="M10.1205 10.1205C9.91681 10.1205 9.72865 10.2277 9.62687 10.4016C9.52509 10.5756 9.52509 10.7899 9.62687 10.9639C9.72865 11.1378 9.91682 11.245 10.1205 11.245H10.6905C10.8942 11.245 11.0823 11.1378 11.1841 10.9639C11.2859 10.7899 11.2859 10.5756 11.1841 10.4016C11.0823 10.2277 10.8942 10.1205 10.6905 10.1205H10.1205Z" fill="#FF6700"/>
<path d="M8.98066 1.12449C10.427 1.12261 11.8463 1.51154 13.0845 2.24899H12.4005C12.1968 2.24899 12.0087 2.35617 11.9069 2.53011C11.8051 2.70406 11.8051 2.91842 11.9069 3.09236C12.0087 3.26631 12.1968 3.37349 12.4005 3.37349H14.6804C14.8556 3.37336 15.021 3.29379 15.1289 3.15762C15.2369 3.02158 15.2753 2.84399 15.2333 2.67634L14.6634 0.427342C14.6124 0.232437 14.4599 0.079197 14.2635 0.0252211C14.0669 -0.0286198 13.8563 0.0249701 13.7106 0.165783C13.565 0.306722 13.5066 0.513542 13.5575 0.708466L13.7115 1.32129C12.2889 0.457317 10.6512 -0.000128277 8.98068 2.37101e-07C7.34097 -0.000376277 5.73335 0.447679 4.3362 1.2943C2.93911 2.14095 1.8073 3.35303 1.0665 4.79598C0.995378 4.92826 0.980621 5.08301 1.02553 5.22609C1.07044 5.36917 1.17146 5.48851 1.30594 5.55791C1.38724 5.60134 1.47846 5.62355 1.57095 5.62254C1.67451 5.6228 1.7763 5.59518 1.8651 5.5426C1.95403 5.49014 2.02667 5.41471 2.0754 5.3246C2.71954 4.06256 3.70605 3.00181 4.92527 2.26022C6.1445 1.51875 7.5483 1.12556 8.98056 1.12454L8.98066 1.12449Z" fill="#FF6700"/>
<path d="M16.6553 12.4341C16.5219 12.3645 16.366 12.3501 16.2218 12.3939C16.0775 12.4376 15.9568 12.536 15.8859 12.6674C15.2418 13.9294 14.2553 14.9902 13.036 15.7318C11.8168 16.4732 10.413 16.8664 8.98075 16.8674C7.53445 16.8693 6.11511 16.4804 4.87693 15.7429H5.5609C5.76459 15.7429 5.95275 15.6358 6.05453 15.4618C6.15632 15.2879 6.15632 15.0735 6.05453 14.8996C5.95275 14.7256 5.76459 14.6184 5.5609 14.6184H3.28101C3.10582 14.6186 2.94042 14.6981 2.83252 14.8343C2.7245 14.9703 2.68608 15.1479 2.72807 15.3156L3.29804 17.5646C3.3287 17.6864 3.39969 17.7948 3.49982 17.8722C3.60007 17.9497 3.72361 17.9918 3.85096 17.9919C3.89803 17.9917 3.94485 17.986 3.99065 17.9751C4.13671 17.9386 4.26215 17.8465 4.33951 17.7189C4.41699 17.5916 4.44015 17.439 4.40389 17.2948L4.24994 16.6819C5.67361 17.5419 7.31126 17.9954 8.98073 17.9919C10.6204 17.9923 12.2281 17.5442 13.6252 16.6976C15.0223 15.851 16.1541 14.6389 16.8949 13.1959C16.966 13.0636 16.9808 12.9089 16.9359 12.7658C16.891 12.6227 16.7899 12.5034 16.6555 12.434L16.6553 12.4341Z" fill="#FF6700"/>
</svg>
