<svg width="18" height="18" viewBox="0 0 18 18" fill="none" xmlns="http://www.w3.org/2000/svg">
<path fill-rule="evenodd" clip-rule="evenodd" d="M8.70176 3.49091V11.7015V11.7017H4.92014V6.04729C3.76985 5.9892 2.72106 5.38852 2.08733 4.41541C2.03026 4.32793 2 4.2259 2 4.12153V1.78267C2 1.6783 2.03026 1.57627 2.08733 1.48879C2.70016 0.547812 3.7528 0.0192322 5.05134 0.00041811C6.05489 -0.0141388 6.98925 0.351843 7.67937 1.03094C8.33868 1.67995 8.70176 2.5535 8.70176 3.49091ZM3.79378 2.95052C3.80699 3.24262 4.03102 3.48954 4.33358 3.48954C4.61593 3.48954 4.88645 3.24166 4.87338 2.95052C4.86031 2.65856 4.63614 2.41164 4.33358 2.41164C4.05124 2.41164 3.78072 2.65952 3.79378 2.95052ZM6.81089 18C6.51272 18 6.27109 17.7587 6.27109 17.461V14.8759H7.35069V17.461C7.35069 17.7587 7.10891 18 6.81089 18ZM4.92014 12.7796H8.70175V13.798H4.92014V12.7796ZM13.9487 0.000427569C15.2472 0.0192416 16.2998 0.547821 16.9128 1.4888C16.9696 1.57628 17 1.67831 17 1.78268V4.12154C17 4.22591 16.9697 4.32794 16.9128 4.41542C16.2789 5.38853 15.2301 5.98921 14.0799 6.0473V11.7017H10.2982V3.49106C10.2982 2.55351 10.6613 1.67996 11.3208 1.03108C12.0107 0.35199 12.9435 -0.013992 13.9487 0.000427569ZM14.1266 2.95053C14.1397 3.24263 14.3639 3.48955 14.6664 3.48955C14.9488 3.48955 15.2193 3.24167 15.2062 2.95053C15.193 2.65857 14.969 2.41165 14.6664 2.41165C14.3841 2.41165 14.1136 2.65953 14.1266 2.95053ZM10.2982 12.7796H14.0797V13.798H10.2982V12.7796ZM12.189 18C11.891 18 11.6492 17.7587 11.6492 17.461V14.8759H12.7288V17.461C12.7288 17.7587 12.4871 18 12.189 18Z" fill="#FF6700"/>
</svg>
