<svg width="17" height="16" viewBox="0 0 17 16" fill="none" xmlns="http://www.w3.org/2000/svg">
<g clip-path="url(#clip0_303_216)">
<path d="M8.77397 14.6827C8.7018 14.6831 8.63026 14.6696 8.56344 14.6431C8.49663 14.6166 8.43586 14.5775 8.38462 14.528L2.06188 8.37886C2.01048 8.32928 1.96969 8.2703 1.94185 8.20531C1.91401 8.14032 1.89967 8.07061 1.89967 8.00021C1.89967 7.9298 1.91401 7.8601 1.94185 7.79511C1.96969 7.73012 2.01048 7.67113 2.06188 7.62155L2.89541 6.81624C3.34207 6.37811 3.90836 6.07347 4.52735 5.93833C5.14634 5.80319 5.79218 5.84318 6.38854 6.05359L9.35524 3.16834L8.83977 2.66702C8.73764 2.56709 8.68031 2.43192 8.68031 2.29103C8.68031 2.15013 8.73764 2.01496 8.83977 1.91504L10.6439 0.155085C10.7467 0.0557541 10.8857 0 11.0305 0C11.1754 0 11.3144 0.0557541 11.4171 0.155085L16.8405 5.42961C16.9427 5.52953 17 5.6647 17 5.8056C17 5.9465 16.9427 6.08167 16.8405 6.18159L15.0309 7.93621C14.9282 8.03554 14.7892 8.0913 14.6443 8.0913C14.4994 8.0913 14.3604 8.03554 14.2577 7.93621L13.7422 7.43489L10.7755 10.3201C10.9905 10.9003 11.031 11.5281 10.8921 12.1298C10.7532 12.7315 10.4407 13.2823 9.99135 13.7174L9.16331 14.528C9.11207 14.5775 9.0513 14.6166 8.98449 14.6431C8.91768 14.6696 8.84614 14.6831 8.77397 14.6827ZM3.22443 8.00021L8.77397 13.3974L9.21815 12.9654C9.5526 12.6394 9.7733 12.2195 9.84907 11.765C9.92483 11.3104 9.85184 10.8442 9.6404 10.4321C9.58897 10.3327 9.57084 10.2201 9.58854 10.1101C9.60624 10.0001 9.65889 9.89825 9.7391 9.81883L13.3529 6.30425C13.4039 6.25427 13.4645 6.21459 13.5313 6.18751C13.5982 6.16044 13.6698 6.1465 13.7422 6.1465C13.8146 6.1465 13.8863 6.16044 13.9531 6.18751C14.0199 6.21459 14.0806 6.25427 14.1316 6.30425L14.647 6.80557L15.678 5.80293L11.0333 1.28572L10.0023 2.28836L10.5178 2.78968C10.5692 2.83926 10.61 2.89825 10.6378 2.96324C10.6657 3.02823 10.68 3.09793 10.68 3.16834C10.68 3.23874 10.6657 3.30845 10.6378 3.37344C10.61 3.43843 10.5692 3.49742 10.5178 3.54699L6.90402 7.06157C6.82235 7.13958 6.71763 7.19078 6.60454 7.208C6.49145 7.22521 6.37565 7.20758 6.27339 7.15756C5.84973 6.95192 5.37034 6.88093 4.90295 6.95462C4.43556 7.02831 4.00378 7.24295 3.66861 7.56822L3.22443 8.00021Z" fill="#444444"/>
<path d="M1.09675 16C1.02458 16.0004 0.953038 15.9869 0.886225 15.9604C0.819413 15.9339 0.758644 15.8948 0.707404 15.8453C0.656006 15.7957 0.61521 15.7368 0.58737 15.6718C0.55953 15.6068 0.545197 15.5371 0.545197 15.4667C0.545197 15.3963 0.55953 15.3266 0.58737 15.2616C0.61521 15.1966 0.656006 15.1376 0.707404 15.088L5.226 10.6988C5.3309 10.6114 5.46584 10.5658 5.60386 10.571C5.74187 10.5761 5.87279 10.6318 5.97045 10.7268C6.06811 10.8217 6.12532 10.9491 6.13066 11.0833C6.13599 11.2175 6.08904 11.3488 5.9992 11.4508L1.48609 15.8453C1.43485 15.8948 1.37409 15.9339 1.30727 15.9604C1.24046 15.9869 1.16892 16.0004 1.09675 16Z" fill="#444444"/>
<path d="M13.7422 7.2162C13.6701 7.2166 13.5985 7.20315 13.5317 7.17661C13.4649 7.15007 13.4041 7.11096 13.3529 7.06153L11.9984 5.74424C11.9473 5.69451 11.9067 5.63548 11.879 5.57051C11.8514 5.50554 11.8371 5.4359 11.8371 5.36558C11.8371 5.29526 11.8514 5.22562 11.879 5.16065C11.9067 5.09568 11.9473 5.03665 11.9984 4.98692C12.0495 4.9372 12.1102 4.89775 12.177 4.87084C12.2438 4.84393 12.3154 4.83008 12.3877 4.83008C12.4601 4.83008 12.5317 4.84393 12.5985 4.87084C12.6653 4.89775 12.726 4.9372 12.7771 4.98692L14.1316 6.30422C14.183 6.3538 14.2238 6.41279 14.2516 6.47777C14.2794 6.54276 14.2938 6.61247 14.2938 6.68288C14.2938 6.75328 14.2794 6.82299 14.2516 6.88798C14.2238 6.95297 14.183 7.01195 14.1316 7.06153C14.0803 7.11096 14.0196 7.15007 13.9528 7.17661C13.8859 7.20315 13.8144 7.2166 13.7422 7.2162Z" fill="#444444"/>
</g>
<defs>
<clipPath id="clip0_303_216">
<rect width="17" height="16" fill="white"/>
</clipPath>
</defs>
</svg>
