<svg width="18" height="18" viewBox="0 0 18 18" fill="none" xmlns="http://www.w3.org/2000/svg">
<path fill-rule="evenodd" clip-rule="evenodd" d="M12.3574 0.601306C12.2826 0.246233 11.9621 -0.00688823 11.5954 0.000142916H7.03743C6.67066 -0.00688823 6.35018 0.246233 6.27897 0.601306L5.67006 3.07627H12.9841L12.3574 0.601306ZM5.65225 14.9237L6.27541 17.3987C6.35018 17.7538 6.6671 18.0069 7.03387 17.9999H11.5918C11.9586 18.0069 12.2791 17.7538 12.3503 17.3987L12.9592 14.9237H5.65225ZM6.27897 3.75125H12.3538C13.6144 3.75125 14.6328 4.75671 14.6364 6.00122V12.0023C14.6364 13.2433 13.6144 14.2523 12.3574 14.2523H6.27897C5.02197 14.2523 4 13.2433 4 12.0023V6.00122C4 4.76022 5.02197 3.75125 6.27897 3.75125ZM6.27897 9C6.27897 9.41132 6.61725 9.74882 7.03744 9.74882C7.45762 9.74882 7.7959 9.41484 7.7959 9C7.7959 8.58868 7.45762 8.25118 7.03744 8.25118C6.62081 8.25118 6.27897 8.58516 6.27897 9ZM8.55793 9C8.55793 9.41132 8.89622 9.74882 9.3164 9.74882C9.73659 9.74882 10.0749 9.41484 10.0749 9C10.0749 8.58868 9.73659 8.25118 9.3164 8.25118C8.89978 8.25118 8.55793 8.58516 8.55793 9ZM10.8369 9C10.8369 9.41132 11.1752 9.74882 11.5954 9.74882C12.0156 9.74882 12.3538 9.41484 12.3538 9C12.3538 8.58868 12.0156 8.25118 11.5954 8.25118C11.1787 8.25118 10.8369 8.58516 10.8369 9Z" fill="#FF6700"/>
</svg>
