<svg width="18" height="18" viewBox="0 0 18 18" fill="none" xmlns="http://www.w3.org/2000/svg">
<g clip-path="url(#clip0_2072_3014)">
<path d="M2.25 7.875H13.5V6.75H2.25V7.875ZM8.4375 14.625H12.375V13.5H8.4375V14.625ZM8.4375 12.375H13.5V11.25H8.4375V12.375ZM8.4375 10.125H13.5V9H8.4375V10.125ZM2.25 14.625H7.3125V9H2.25V14.625ZM15.75 5.625V3.375H0V15.75C0 15.75 0 18 2.25 18H16.3125C16.3125 18 18 17.9651 18 15.75V5.625H15.75ZM2.25 16.875C1.125 16.875 1.125 15.75 1.125 15.75V4.5H14.625V15.75C14.625 16.2681 14.7847 16.6264 15.0052 16.875H2.25Z" fill="#FF6700"/>
</g>
<defs>
<clipPath id="clip0_2072_3014">
<rect width="18" height="18" fill="#FF6700"/>
</clipPath>
</defs>
</svg>
