<svg width="31" height="38" viewBox="0 0 31 38" fill="none" xmlns="http://www.w3.org/2000/svg">
<path d="M0.890137 6.79223V22.4672C0.890137 26.5126 4.56244 30.1701 8.2427 32.8222C11.923 35.4743 15.5953 37.1131 15.5953 37.1131C15.5953 37.1131 30.3004 30.5581 30.3004 22.4672V6.79223L15.5953 0.688477L0.890137 6.79223Z" fill="white"/>
<path d="M25.1497 30.3047C24.9033 30.5185 24.8874 30.8985 25.102 31.1439C25.2133 31.2706 25.3802 31.3418 25.5471 31.3418C25.6902 31.3418 25.8333 31.2864 25.9446 31.1835C26.191 30.9697 26.2069 30.5897 25.9923 30.3522C25.7777 30.1147 25.3802 30.091 25.1497 30.3047Z" fill="#F9920F"/>
<path d="M30.531 6.24598L15.8258 0.142227C15.6828 0.0788932 15.5158 0.0788932 15.3728 0.142227L0.667643 6.24598C0.445079 6.33306 0.302002 6.54681 0.302002 6.79223V22.4672C0.309951 24.4701 1.12867 26.5126 2.71841 28.5314C3.96636 30.1226 5.65944 31.6822 7.89303 33.3051C11.47 35.8701 14.9674 37.4772 15.3569 37.6514C15.4364 37.6831 15.5158 37.6989 15.6033 37.6989C15.6828 37.6989 15.7623 37.6831 15.8497 37.6514C15.8497 37.6435 15.8576 37.6435 15.8815 37.6356C16.6923 37.2556 20.9448 35.2368 24.7046 32.2364C24.9589 32.0306 24.9987 31.6506 24.8 31.3972C24.6012 31.1518 24.2038 31.1122 23.9574 31.3101C21.8907 32.9647 19.6571 34.3026 18.1469 35.1418C16.9625 35.7989 16.0484 36.2422 15.5953 36.456C14.713 36.0364 11.6687 34.556 8.59251 32.3393C5.92175 30.4314 1.45457 26.6076 1.48636 22.4672V7.18806L4.95995 5.74723C4.97585 5.73931 4.99175 5.73931 4.99969 5.73139L15.5953 1.33764L29.7043 7.18806V22.4672C29.7123 24.6206 28.5517 26.9006 26.2705 29.236C26.0399 29.4656 26.0479 29.8456 26.2784 30.0751C26.5089 30.2968 26.8984 30.2889 27.121 30.0593C29.6248 27.5022 30.8966 24.9451 30.8966 22.4672V6.79223C30.8966 6.54681 30.7535 6.33306 30.531 6.24598Z" fill="#F9920F"/>
<path d="M21.5091 6.31674L15.8258 3.95758C15.6827 3.90216 15.5158 3.90216 15.3727 3.95758L4.20475 8.58883C3.98219 8.68383 3.83911 8.89758 3.83911 9.14299V22.4667C3.87885 24.8259 5.93757 27.5097 9.96757 30.4467C11.9786 31.8876 13.9976 33.0197 15.3409 33.7163C15.4283 33.7638 15.5237 33.7797 15.6191 33.7797C15.7145 33.7797 15.8099 33.7638 15.8894 33.7163C18.6555 32.3072 21.4137 30.4705 23.4407 28.6734C26.0558 26.3459 27.3355 24.3113 27.3594 22.4667V9.14299C27.3594 8.89758 27.2163 8.68383 26.9937 8.58883L24.4422 7.53591C24.1481 7.40925 23.7904 7.55966 23.6712 7.85258C23.6076 8.00299 23.6076 8.16133 23.6632 8.31174C23.7268 8.45424 23.8381 8.56508 23.9812 8.62841C23.9812 8.62841 23.9812 8.62841 23.9891 8.63633L26.1671 9.53883V22.4667C26.1909 23.8442 24.8794 25.8392 22.6458 27.7867C20.7699 29.4492 18.2024 31.1751 15.6191 32.5209C14.3712 31.8638 12.5032 30.803 10.6671 29.4809C7.19347 27.0109 4.98373 24.2559 5.03142 22.4667V9.53883L15.6032 5.15299L21.056 7.41716C21.3501 7.53591 21.7078 7.38549 21.835 7.09258C21.9542 6.79174 21.8112 6.44341 21.5091 6.31674Z" fill="#F9920F"/>
<path d="M22.5187 8.01952C22.5903 8.05119 22.6697 8.06702 22.7492 8.06702C22.9956 8.06702 23.2103 7.92452 23.2977 7.70286C23.3613 7.56036 23.3613 7.39411 23.2977 7.25161C23.2421 7.10119 23.1228 6.99036 22.9797 6.92702C22.6856 6.80036 22.32 6.95077 22.2008 7.24369C22.1372 7.39411 22.1372 7.55244 22.2008 7.70286C22.2564 7.84536 22.3756 7.96411 22.5187 8.01952Z" fill="#F9920F"/>
<path fill-rule="evenodd" clip-rule="evenodd" d="M12.9999 22.6996L8.7999 18.4996L7.3999 19.8996L12.9999 25.4996L24.9999 13.4996L23.5999 12.0996L12.9999 22.6996Z" fill="#F9920F"/>
</svg>
