<svg width="18" height="18" viewBox="0 0 18 18" fill="none" xmlns="http://www.w3.org/2000/svg">
<path d="M16.3328 11.8384V11.1359V6.91918V2.70249C16.3328 2.31656 16.0331 2 15.6664 2H2.33361C1.96689 2 1.66639 2.31501 1.66639 2.70249V6.91918V11.1359V11.8384L0 13.9467C0 14.5276 0.447491 15 1 15H17C17.5517 15 18 14.5274 18 13.9467L16.3328 11.8384ZM10.3342 14.6499H7.66723C7.57507 14.6499 7.50042 14.5718 7.50042 14.474C7.50042 14.3762 7.57507 14.2982 7.66723 14.2982H10.3345C10.4258 14.2982 10.5013 14.3762 10.5013 14.474C10.4987 14.5721 10.4256 14.6499 10.3342 14.6499ZM6.252 13.9474L6.76065 13.3038H11.2383L11.7478 13.9474H6.252ZM15.3946 10.5955C15.3946 10.9345 15.1326 11.2088 14.8134 11.2088H3.18642C2.86714 11.2088 2.60523 10.932 2.60523 10.5955V3.24425C2.60523 2.90523 2.86714 2.6309 3.18642 2.6309H14.8136C15.1329 2.6309 15.3948 2.90701 15.3948 3.24425C15.3946 3.24425 15.3946 10.5955 15.3946 10.5955Z" fill="#FF6700"/>
</svg>
