<svg width="18" height="18" viewBox="0 0 18 18" fill="none" xmlns="http://www.w3.org/2000/svg">
<g clip-path="url(#clip0_2072_2883)">
<path d="M14.8947 0H3.10526C1.94316 0 1 0.84 1 1.875V16.125C1 17.16 1.94316 18 3.10526 18H14.8947C16.0568 18 17 17.16 17 16.125V1.875C17 0.84 16.0568 0 14.8947 0ZM9 17.25C8.30105 17.25 7.73684 16.7475 7.73684 16.125C7.73684 15.5025 8.30105 15 9 15C9.69895 15 10.2632 15.5025 10.2632 16.125C10.2632 16.7475 9.69895 17.25 9 17.25ZM15.3158 14.25H2.68421V2.25H15.3158V14.25Z" fill="#FF6700"/>
</g>
<defs>
<clipPath id="clip0_2072_2883">
<rect width="18" height="18" fill="#FF6700"/>
</clipPath>
</defs>
</svg>
