<svg width="33" height="31" viewBox="0 0 33 31" fill="none" xmlns="http://www.w3.org/2000/svg">
<g clip-path="url(#clip0_266_2996)">
<path d="M15.0593 5.79901C14.8677 5.55729 10.3263 -0.114399 6.74113 0.378487C5.46993 0.553355 4.49092 1.44352 3.83142 3.02422C2.92157 5.20492 2.84595 6.97753 3.6067 8.29271C4.55381 9.93009 6.43111 10.1943 6.51054 10.2047C6.53153 10.2075 6.55271 10.2089 6.57389 10.2089H14.6792C14.9466 10.2089 15.1635 9.99282 15.1635 9.72633V6.09805C15.1635 5.98957 15.1268 5.88419 15.0593 5.79901Z" fill="#FF3D43"/>
<path d="M29.1686 3.02423C28.5091 1.44354 27.5302 0.553369 26.259 0.378501C22.6745 -0.114513 18.1323 5.55737 17.9408 5.79902C17.8733 5.88421 17.8365 5.98959 17.8365 6.09806V9.72635C17.8365 9.99283 18.0534 10.2089 18.3209 10.2089H26.4261C26.4473 10.2089 26.4685 10.2075 26.4895 10.2048C26.5689 10.1943 28.4462 9.9301 29.3933 8.29273C30.1541 6.97749 30.0785 5.20494 29.1686 3.02423Z" fill="#FF3D43"/>
<path d="M14.6792 7.98924H6.57394C6.55276 7.98924 6.53157 7.98789 6.51059 7.98512C6.43116 7.97463 4.55386 7.71053 3.60675 6.07309C3.42414 5.75739 3.29027 5.41505 3.204 5.04736C2.96333 6.32452 3.097 7.41149 3.60675 8.29272C4.55386 9.93009 6.43116 10.1943 6.51059 10.2047C6.53157 10.2075 6.55276 10.2089 6.57394 10.2089H14.6792C14.9467 10.2089 15.1635 9.99282 15.1635 9.72634V7.50671C15.1635 7.77319 14.9467 7.98924 14.6792 7.98924Z" fill="#D62D2D"/>
<path d="M29.3933 6.07309C28.4462 7.71047 26.5689 7.97463 26.4895 7.98512C26.4685 7.98789 26.4473 7.98924 26.4261 7.98924H18.3209C18.0534 7.98924 17.8365 7.77319 17.8365 7.50671V9.72634C17.8365 9.99282 18.0534 10.2089 18.3209 10.2089H26.4261C26.4473 10.2089 26.4685 10.2075 26.4895 10.2047C26.5689 10.1943 28.4462 9.93009 29.3933 8.29272C29.9031 7.41143 30.0367 6.32452 29.7961 5.04736C29.7099 5.41505 29.5759 5.75739 29.3933 6.07309Z" fill="#D62D2D"/>
<path d="M18.3208 5.61572H14.6791C14.4117 5.61572 14.1948 5.83177 14.1948 6.09825V9.72653C14.1948 9.99302 14.4117 10.2091 14.6791 10.2091H18.3208C18.5883 10.2091 18.8051 9.99302 18.8051 9.72653V6.09825C18.8051 5.83177 18.5883 5.61572 18.3208 5.61572Z" fill="#D62D2D"/>
<path d="M14.1948 7.98926V9.72635C14.1948 9.99284 14.4117 10.2089 14.6791 10.2089H18.3208C18.5883 10.2089 18.8051 9.99284 18.8051 9.72635V7.98926H14.1948Z" fill="#9E1219"/>
<path d="M30.0689 14.0103H2.93096C2.6635 14.0103 2.44666 14.2263 2.44666 14.4928V28.5548C2.44666 29.7111 3.39079 30.6517 4.55132 30.6517H28.4486C29.6091 30.6517 30.5532 29.7111 30.5532 28.5548V14.4928C30.5532 14.2262 30.3364 14.0103 30.0689 14.0103Z" fill="#FFD039"/>
<path d="M30.0689 14.0103H2.93096C2.6635 14.0103 2.44666 14.2263 2.44666 14.4928V16.566H30.5532V14.4928C30.5532 14.2262 30.3364 14.0103 30.0689 14.0103Z" fill="#F4B70C"/>
<path d="M32.5157 9.24365H0.484306C0.21684 9.24365 0 9.4597 0 9.72618V14.4925C0 14.759 0.21684 14.9751 0.484306 14.9751H32.5157C32.7832 14.9751 33 14.759 33 14.4925V9.72618C33 9.4597 32.7832 9.24365 32.5157 9.24365Z" fill="#FFDF65"/>
<path d="M0 12.7554V14.4925C0 14.759 0.21684 14.975 0.484306 14.975H32.5157C32.7832 14.975 33 14.759 33 14.4925V12.7554H0Z" fill="#FFCD2C"/>
<path d="M18.8946 9.24365H14.1053C13.8378 9.24365 13.621 9.4597 13.621 9.72618V30.1689C13.621 30.4354 13.8378 30.6515 14.1053 30.6515H18.8946C19.162 30.6515 19.3789 30.4354 19.3789 30.1689V9.72618C19.3789 9.4597 19.1621 9.24365 18.8946 9.24365Z" fill="#FF3D43"/>
<path d="M18.8946 9.24365H17.1511V30.6515H18.8946C19.1621 30.6515 19.3789 30.4354 19.3789 30.1689V9.72618C19.3789 9.4597 19.1621 9.24365 18.8946 9.24365Z" fill="#D62D2D"/>
</g>
<defs>
<clipPath id="clip0_266_2996">
<rect width="33" height="31" fill="white"/>
</clipPath>
</defs>
</svg>
