<svg width="18" height="18" viewBox="0 0 18 18" fill="none" xmlns="http://www.w3.org/2000/svg">
<path fill-rule="evenodd" clip-rule="evenodd" d="M15.3696 0H3.63043C2.73035 0.00109864 2.00111 0.719919 2 1.60715V14.8214C2.42815 14.3874 3.01631 14.1427 3.63043 14.1429H15.3696C15.9837 14.1427 16.5719 14.3874 17 14.8214V1.60715C16.9989 0.719919 16.2696 0.00109864 15.3696 0ZM3.95653 16.3929C3.95653 16.5704 3.81052 16.7143 3.63044 16.7143C3.45036 16.7143 3.30436 16.5704 3.30436 16.3929C3.30436 16.2154 3.45036 16.0715 3.63044 16.0715C3.81052 16.0715 3.95653 16.2154 3.95653 16.3929ZM15.6957 16.0715H13.7391V16.7143H15.6957V16.0715ZM9.82608 16.3171L10.0277 16.7143H11.581L11.7826 16.3171V16.0715H9.82608V16.3171ZM3.63043 14.7857H15.3696C16.27 14.7857 17 15.5053 17 16.3929C17 17.2804 16.27 18 15.3696 18H3.63043C2.73003 18 2 17.2804 2 16.3929C2 15.5053 2.73003 14.7857 3.63043 14.7857ZM2.65217 16.3929C2.65217 16.9254 3.09019 17.3571 3.63043 17.3571C4.17068 17.3571 4.6087 16.9254 4.6087 16.3929C4.6087 15.8603 4.17068 15.4286 3.63043 15.4286C3.09019 15.4286 2.65217 15.8603 2.65217 16.3929ZM5.26087 16.7143H5.91304V16.0714H5.26087V16.7143ZM6.56522 16.7143H7.21739V16.0714H6.56522V16.7143ZM7.86957 16.7143H8.52174V16.0714H7.86957V16.7143ZM12.4021 16.5365C12.4241 16.4917 12.4353 16.4426 12.4348 16.3929V15.75C12.4348 15.5725 12.2888 15.4286 12.1087 15.4286H9.5C9.31992 15.4286 9.17391 15.5725 9.17391 15.75V16.3929C9.17343 16.4426 9.18458 16.4917 9.20655 16.5365L9.53264 17.1793C9.58805 17.2889 9.70189 17.3578 9.82609 17.3571H11.7826C11.9068 17.3578 12.0206 17.2889 12.0761 17.1793L12.4021 16.5365ZM16.0217 17.3571C16.2018 17.3571 16.3478 17.2132 16.3478 17.0357V15.75C16.3478 15.5725 16.2018 15.4286 16.0217 15.4286H13.413C13.233 15.4286 13.087 15.5725 13.087 15.75V17.0357C13.087 17.2132 13.233 17.3571 13.413 17.3571H16.0217Z" fill="#FF6700"/>
</svg>
