<svg width="12" height="13" viewBox="0 0 12 13" fill="none" xmlns="http://www.w3.org/2000/svg">
<path d="M0.857143 11.8572V9.92864H2.78571V11.8572H0.857143ZM3.21429 11.8572V9.92864H5.35714V11.8572H3.21429ZM0.857143 9.50007V7.35721H2.78571V9.50007H0.857143ZM3.21429 9.50007V7.35721H5.35714V9.50007H3.21429ZM0.857143 6.92864V5.00007H2.78571V6.92864H0.857143ZM5.78571 11.8572V9.92864H7.92857V11.8572H5.78571ZM3.21429 6.92864V5.00007H5.35714V6.92864H3.21429ZM8.35714 11.8572V9.92864H10.2857V11.8572H8.35714ZM5.78571 9.50007V7.35721H7.92857V9.50007H5.78571ZM3.42857 3.71436C3.42857 3.8282 3.32812 3.92864 3.21429 3.92864H2.78571C2.67188 3.92864 2.57143 3.8282 2.57143 3.71436V1.78578C2.57143 1.67194 2.67188 1.5715 2.78571 1.5715H3.21429C3.32812 1.5715 3.42857 1.67194 3.42857 1.78578V3.71436ZM8.35714 9.50007V7.35721H10.2857V9.50007H8.35714ZM5.78571 6.92864V5.00007H7.92857V6.92864H5.78571ZM8.35714 6.92864V5.00007H10.2857V6.92864H8.35714ZM8.57143 3.71436C8.57143 3.8282 8.47098 3.92864 8.35714 3.92864H7.92857C7.81473 3.92864 7.71429 3.8282 7.71429 3.71436V1.78578C7.71429 1.67194 7.81473 1.5715 7.92857 1.5715H8.35714C8.47098 1.5715 8.57143 1.67194 8.57143 1.78578V3.71436ZM11.1429 3.28578C11.1429 2.81703 10.7545 2.42864 10.2857 2.42864H9.42857V1.78578C9.42857 1.1965 8.94643 0.714355 8.35714 0.714355H7.92857C7.33929 0.714355 6.85714 1.1965 6.85714 1.78578V2.42864H4.28571V1.78578C4.28571 1.1965 3.80357 0.714355 3.21429 0.714355H2.78571C2.19643 0.714355 1.71429 1.1965 1.71429 1.78578V2.42864H0.857143C0.388393 2.42864 0 2.81703 0 3.28578V11.8572C0 12.326 0.388393 12.7144 0.857143 12.7144H10.2857C10.7545 12.7144 11.1429 12.326 11.1429 11.8572V3.28578Z" fill="#777777"/>
</svg>
