<svg width="12" height="8" viewBox="0 0 12 8" fill="none" xmlns="http://www.w3.org/2000/svg">
<path d="M11.1429 4.14279C9.99777 5.91064 8.14955 7.14279 6 7.14279C3.85045 7.14279 2.00223 5.91064 0.857143 4.14279C1.4933 3.15841 2.36384 2.31466 3.40848 1.77895C3.14062 2.23431 3 2.75663 3 3.28565C3 4.93966 4.34598 6.28565 6 6.28565C7.65402 6.28565 9 4.93966 9 3.28565C9 2.75663 8.85938 2.23431 8.59152 1.77895C9.63616 2.31466 10.5067 3.15841 11.1429 4.14279ZM6.32143 1.57136C6.32143 1.74547 6.17411 1.89279 6 1.89279C5.23661 1.89279 4.60714 2.52225 4.60714 3.28565C4.60714 3.45975 4.45982 3.60707 4.28571 3.60707C4.11161 3.60707 3.96429 3.45975 3.96429 3.28565C3.96429 2.16734 4.8817 1.24993 6 1.24993C6.17411 1.24993 6.32143 1.39725 6.32143 1.57136ZM12 4.14279C12 3.97538 11.9464 3.82136 11.8661 3.68073C10.6339 1.65841 8.37723 0.285645 6 0.285645C3.62277 0.285645 1.36607 1.65841 0.133929 3.68073C0.0535714 3.82136 0 3.97538 0 4.14279C0 4.3102 0.0535714 4.46422 0.133929 4.60484C1.36607 6.62716 3.62277 7.99993 6 7.99993C8.37723 7.99993 10.6339 6.63386 11.8661 4.60484C11.9464 4.46422 12 4.3102 12 4.14279Z" fill="#777777"/>
</svg>
